<mxfile host="app.diagrams.net" modified="2023-11-16T10:50:10.996Z" agent="Mozilla/5.0 (Windows NT 10.0; Win64; x64) AppleWebKit/537.36 (KHTML, like Gecko) Chrome/119.0.0.0 Safari/537.36" etag="S3itr9vQXVcY7VEB6L2Y" version="22.1.2" type="github">
  <diagram name="페이지-1" id="iiUQF31darGWQmdNgnVL">
    <mxGraphModel dx="1434" dy="750" grid="1" gridSize="10" guides="1" tooltips="1" connect="1" arrows="1" fold="1" page="1" pageScale="1" pageWidth="827" pageHeight="1169" math="0" shadow="0">
      <root>
        <mxCell id="0" />
        <mxCell id="1" parent="0" />
        <mxCell id="6ITl8z-6siOdrVx8FUeB-3" style="edgeStyle=orthogonalEdgeStyle;rounded=0;orthogonalLoop=1;jettySize=auto;html=1;exitX=0.5;exitY=1;exitDx=0;exitDy=0;entryX=0.5;entryY=0;entryDx=0;entryDy=0;" edge="1" parent="1" source="6ITl8z-6siOdrVx8FUeB-1" target="6ITl8z-6siOdrVx8FUeB-2">
          <mxGeometry relative="1" as="geometry" />
        </mxCell>
        <mxCell id="6ITl8z-6siOdrVx8FUeB-1" value="" style="ellipse;whiteSpace=wrap;html=1;aspect=fixed;" vertex="1" parent="1">
          <mxGeometry x="205" y="80" width="30" height="30" as="geometry" />
        </mxCell>
        <mxCell id="6ITl8z-6siOdrVx8FUeB-6" style="edgeStyle=orthogonalEdgeStyle;rounded=0;orthogonalLoop=1;jettySize=auto;html=1;exitX=0.5;exitY=1;exitDx=0;exitDy=0;entryX=0.5;entryY=0;entryDx=0;entryDy=0;" edge="1" parent="1" source="6ITl8z-6siOdrVx8FUeB-2" target="6ITl8z-6siOdrVx8FUeB-5">
          <mxGeometry relative="1" as="geometry" />
        </mxCell>
        <mxCell id="6ITl8z-6siOdrVx8FUeB-2" value="결제 진행" style="rounded=1;whiteSpace=wrap;html=1;" vertex="1" parent="1">
          <mxGeometry x="160" y="140" width="120" height="40" as="geometry" />
        </mxCell>
        <mxCell id="6ITl8z-6siOdrVx8FUeB-19" style="edgeStyle=orthogonalEdgeStyle;rounded=0;orthogonalLoop=1;jettySize=auto;html=1;exitX=0.5;exitY=1;exitDx=0;exitDy=0;entryX=0;entryY=0.5;entryDx=0;entryDy=0;" edge="1" parent="1" source="6ITl8z-6siOdrVx8FUeB-5" target="6ITl8z-6siOdrVx8FUeB-8">
          <mxGeometry relative="1" as="geometry" />
        </mxCell>
        <mxCell id="6ITl8z-6siOdrVx8FUeB-5" value="로그인" style="rounded=1;whiteSpace=wrap;html=1;" vertex="1" parent="1">
          <mxGeometry x="160" y="210" width="120" height="40" as="geometry" />
        </mxCell>
        <mxCell id="6ITl8z-6siOdrVx8FUeB-13" style="edgeStyle=orthogonalEdgeStyle;rounded=0;orthogonalLoop=1;jettySize=auto;html=1;exitX=0.5;exitY=1;exitDx=0;exitDy=0;entryX=0.5;entryY=0;entryDx=0;entryDy=0;" edge="1" parent="1" source="6ITl8z-6siOdrVx8FUeB-8" target="6ITl8z-6siOdrVx8FUeB-9">
          <mxGeometry relative="1" as="geometry" />
        </mxCell>
        <mxCell id="6ITl8z-6siOdrVx8FUeB-8" value="회원 정보 DB 접근" style="rounded=1;whiteSpace=wrap;html=1;" vertex="1" parent="1">
          <mxGeometry x="499" y="270" width="120" height="40" as="geometry" />
        </mxCell>
        <mxCell id="6ITl8z-6siOdrVx8FUeB-16" value="불일치" style="edgeStyle=orthogonalEdgeStyle;rounded=0;orthogonalLoop=1;jettySize=auto;html=1;exitX=1;exitY=0.5;exitDx=0;exitDy=0;entryX=1;entryY=0.5;entryDx=0;entryDy=0;" edge="1" parent="1" source="6ITl8z-6siOdrVx8FUeB-9" target="6ITl8z-6siOdrVx8FUeB-5">
          <mxGeometry x="-0.8842" y="5" relative="1" as="geometry">
            <mxPoint x="680" y="220" as="targetPoint" />
            <Array as="points">
              <mxPoint x="660" y="355" />
              <mxPoint x="660" y="230" />
            </Array>
            <mxPoint x="1" as="offset" />
          </mxGeometry>
        </mxCell>
        <mxCell id="6ITl8z-6siOdrVx8FUeB-34" value="일치" style="edgeStyle=orthogonalEdgeStyle;rounded=0;orthogonalLoop=1;jettySize=auto;html=1;exitX=0.5;exitY=1;exitDx=0;exitDy=0;entryX=0.5;entryY=0;entryDx=0;entryDy=0;" edge="1" parent="1" source="6ITl8z-6siOdrVx8FUeB-9" target="6ITl8z-6siOdrVx8FUeB-14">
          <mxGeometry x="-0.7738" y="-5" relative="1" as="geometry">
            <mxPoint as="offset" />
          </mxGeometry>
        </mxCell>
        <mxCell id="6ITl8z-6siOdrVx8FUeB-9" value="" style="rhombus;whiteSpace=wrap;html=1;" vertex="1" parent="1">
          <mxGeometry x="531.5" y="330" width="55" height="50" as="geometry" />
        </mxCell>
        <mxCell id="6ITl8z-6siOdrVx8FUeB-23" style="edgeStyle=orthogonalEdgeStyle;rounded=0;orthogonalLoop=1;jettySize=auto;html=1;exitX=0.5;exitY=1;exitDx=0;exitDy=0;entryX=0.5;entryY=0;entryDx=0;entryDy=0;" edge="1" parent="1" source="6ITl8z-6siOdrVx8FUeB-14" target="6ITl8z-6siOdrVx8FUeB-21">
          <mxGeometry relative="1" as="geometry" />
        </mxCell>
        <mxCell id="6ITl8z-6siOdrVx8FUeB-14" value="결제 화면" style="rounded=1;whiteSpace=wrap;html=1;" vertex="1" parent="1">
          <mxGeometry x="160" y="430" width="120" height="40" as="geometry" />
        </mxCell>
        <mxCell id="6ITl8z-6siOdrVx8FUeB-28" style="edgeStyle=orthogonalEdgeStyle;rounded=0;orthogonalLoop=1;jettySize=auto;html=1;exitX=1;exitY=0.5;exitDx=0;exitDy=0;entryX=0;entryY=0.5;entryDx=0;entryDy=0;" edge="1" parent="1" source="6ITl8z-6siOdrVx8FUeB-21" target="6ITl8z-6siOdrVx8FUeB-27">
          <mxGeometry relative="1" as="geometry" />
        </mxCell>
        <mxCell id="6ITl8z-6siOdrVx8FUeB-21" value="결제 수단 선택" style="rounded=1;whiteSpace=wrap;html=1;" vertex="1" parent="1">
          <mxGeometry x="160" y="500" width="120" height="40" as="geometry" />
        </mxCell>
        <mxCell id="6ITl8z-6siOdrVx8FUeB-31" style="edgeStyle=orthogonalEdgeStyle;rounded=0;orthogonalLoop=1;jettySize=auto;html=1;exitX=0.5;exitY=1;exitDx=0;exitDy=0;entryX=0.5;entryY=0;entryDx=0;entryDy=0;" edge="1" parent="1" source="6ITl8z-6siOdrVx8FUeB-27" target="6ITl8z-6siOdrVx8FUeB-30">
          <mxGeometry relative="1" as="geometry" />
        </mxCell>
        <mxCell id="6ITl8z-6siOdrVx8FUeB-27" value="결제 요청" style="rounded=1;whiteSpace=wrap;html=1;" vertex="1" parent="1">
          <mxGeometry x="499" y="500" width="120" height="40" as="geometry" />
        </mxCell>
        <mxCell id="6ITl8z-6siOdrVx8FUeB-33" style="edgeStyle=orthogonalEdgeStyle;rounded=0;orthogonalLoop=1;jettySize=auto;html=1;exitX=1;exitY=0.5;exitDx=0;exitDy=0;entryX=1;entryY=0.5;entryDx=0;entryDy=0;" edge="1" parent="1" source="6ITl8z-6siOdrVx8FUeB-30" target="6ITl8z-6siOdrVx8FUeB-14">
          <mxGeometry relative="1" as="geometry">
            <mxPoint x="640" y="450" as="targetPoint" />
            <Array as="points">
              <mxPoint x="640" y="595" />
              <mxPoint x="640" y="450" />
            </Array>
          </mxGeometry>
        </mxCell>
        <mxCell id="6ITl8z-6siOdrVx8FUeB-30" value="" style="rhombus;whiteSpace=wrap;html=1;" vertex="1" parent="1">
          <mxGeometry x="531.5" y="570" width="55" height="50" as="geometry" />
        </mxCell>
      </root>
    </mxGraphModel>
  </diagram>
</mxfile>
